<?xml version="1.0" standalone="no"?>
<!DOCTYPE svg PUBLIC "-//W3C//DTD SVG 20010904//EN"
 "http://www.w3.org/TR/2001/REC-SVG-20010904/DTD/svg10.dtd">
<svg version="1.0" xmlns="http://www.w3.org/2000/svg"
 width="1158.000000pt" height="1158.000000pt" viewBox="0 0 1158.000000 1158.000000"
 preserveAspectRatio="xMidYMid meet">
<metadata>
Created by potrace 1.11, written by Peter Selinger 2001-2013
</metadata>
<g transform="translate(0.000000,1158.000000) scale(0.100000,-0.100000)"
fill="#000000" stroke="none">
<path d="M5169 9745 c-2 -1 -49 -6 -104 -10 -55 -3 -111 -8 -125 -10 -14 -2
-47 -6 -75 -10 -102 -12 -132 -16 -210 -30 -44 -8 -91 -16 -105 -19 -242 -41
-575 -149 -777 -252 -235 -119 -408 -268 -483 -414 -60 -118 -57 -50 -56
-1294 1 -1077 0 -1136 -16 -1114 -55 73 -77 98 -125 138 -108 91 -287 178
-488 236 -49 15 -99 28 -110 30 -11 2 -31 6 -45 9 -94 22 -309 53 -435 61 -77
5 -407 5 -460 -1 -22 -2 -69 -7 -105 -10 -69 -7 -120 -13 -160 -20 -14 -3 -41
-7 -60 -10 -62 -10 -243 -55 -310 -77 -36 -12 -67 -21 -70 -21 -5 0 -81 -33
-169 -74 -73 -34 -178 -108 -238 -169 -57 -58 -86 -104 -109 -174 -5 -14 -9
-1032 -9 -2262 l-1 -2238 36 -44 c82 -103 241 -206 400 -261 3 -1 14 -5 25 -9
116 -44 328 -95 465 -111 30 -4 66 -8 80 -10 93 -14 241 -20 475 -20 332 1
438 10 670 60 121 25 272 75 368 119 151 72 319 203 372 294 l18 30 43 -58
c130 -177 440 -360 784 -464 181 -54 468 -115 622 -131 23 -3 53 -7 65 -9 12
-3 62 -8 110 -11 48 -4 97 -9 108 -11 114 -22 906 -21 1022 0 10 2 56 7 103
11 262 21 659 113 885 203 300 120 563 309 682 491 l41 62 0 707 c0 389 1 719
1 734 1 16 9 32 21 38 19 10 19 2 17 -732 -2 -473 1 -755 7 -777 22 -73 201
-223 361 -304 203 -101 545 -195 812 -222 26 -3 62 -7 79 -9 210 -28 879 -29
1034 -2 14 3 48 7 75 11 28 3 59 8 70 10 11 3 37 7 59 10 21 3 42 7 46 10 3 2
22 7 41 10 19 3 42 8 51 11 9 3 25 6 35 8 207 40 487 165 644 287 103 81 202
192 215 244 4 16 7 1185 7 2599 0 2010 3 2581 13 2618 52 200 -86 406 -381
567 -105 58 -341 148 -462 176 -10 3 -38 9 -63 16 -25 6 -56 13 -70 15 -14 3
-56 11 -95 19 -72 15 -99 19 -195 30 -30 4 -66 9 -80 11 -154 23 -694 23 -840
0 -14 -3 -51 -7 -83 -11 -162 -17 -369 -61 -537 -113 -389 -121 -641 -299
-718 -504 l-22 -58 0 -1361 c0 -1283 -1 -1363 -18 -1375 -9 -7 -19 -11 -21 -9
-2 2 -3 914 -3 2026 0 2180 3 2041 -50 2159 -128 284 -582 540 -1189 669 -52
11 -107 23 -124 26 -16 2 -39 7 -50 9 -60 12 -242 35 -410 52 -64 7 -701 15
-706 9z"/>
</g>
</svg>
